<?xml version="1.0" standalone="no"?>
<!DOCTYPE svg PUBLIC "-//W3C//DTD SVG 1.1//EN"
 "http://www.w3.org/Graphics/SVG/1.1/DTD/svg11.dtd">
<svg xmlns="http://www.w3.org/2000/svg" version="1.1" viewBox="0 0 150 20" width="150" height="20">
  <polyline points="36,5 35,6 34,6 31,9 31,11 30,12 30,16 31,17 31,18 35,22 43,22 44,21 45,21 48,18 48,16 49,15 49,12 48,11 48,9 46,7 45,7 43,5" fill="#1034A6" stroke="black" stroke-width="1"/>
  <polyline points="0,5 0,7 1,8 1,9 2,10 2,12 3,13 3,15 4,16 4,18 5,19 5,21 6,22 11,22 11,21 12,20 12,18 13,17 13,15 14,14 15,14 16,15 16,16 17,17 17,19 18,20 18,22 23,22 24,21 24,19 25,18 25,16 26,15 26,13 27,12 27,11 28,10 28,8 29,7 29,5 24,5 24,6 23,7 23,9 22,10 22,12 21,13 20,13 19,12 19,10 18,9 18,7 17,6 17,5 12,5 12,7 11,8 11,9 10,10 10,12 9,13 8,13 7,12 7,10 6,9 6,7 5,6 5,5" fill="#1034A6" stroke="black" stroke-width="1"/>
  <polyline points="133,4 132,5 130,5 129,6 128,6 126,8 126,9 125,10 125,17 126,18 126,19 128,21 129,21 130,22 132,22 133,23 134,23 135,22 143,22 143,5 136,5 135,4" fill="#1034A6" stroke="black" stroke-width="1"/>
  <polyline points="113,4 112,5 106,5 106,22 110,22 110,12 111,11 111,10 112,9 115,9 117,11 117,22 122,22 122,9 121,8 121,7 119,5 117,5 116,4" fill="#1034A6" stroke="black" stroke-width="1"/>
  <polyline points="92,4 91,5 88,5 84,9 84,12 83,13 83,15 84,16 84,18 88,22 91,22 92,23 93,23 94,22 102,22 102,5 95,5 94,4" fill="#1034A6" stroke="black" stroke-width="1"/>
  <polyline points="60,4 59,5 52,5 52,22 57,22 57,11 58,10 59,10 60,9 63,9 63,4" fill="#1034A6" stroke="black" stroke-width="1"/>
  <polyline points="66,0 66,22 71,22 71,17 72,16 74,18 74,19 77,22 83,22 83,21 76,14 79,11 79,10 83,6 83,5 77,5 74,8 74,9 72,11 71,10 71,0" fill="#1034A6" stroke="black" stroke-width="1"/>
</svg>
